<?xml version="1.0"?>
<svg width="800" height="170" xmlns="http://www.w3.org/2000/svg">
 <metadata id="metadata8">image/svg+xml</metadata>
 <defs>
  <clipPath clipPathUnits="userSpaceOnUse" id="clipPath18">
   <path d="m0,256.397003l720.79303,0l0,-256.397003l-720.79303,0l0,256.397003z" id="path16"/>
  </clipPath>
 </defs>
 <g>
  <title>background</title>
  <rect fill="none" id="canvas_background" height="172" width="802" y="-1" x="-1"/>
 </g>
 <g>
  <title>Layer 1</title>
  <g id="svg_1">
   <g transform="matrix(1.33333 0 0 -1.33333 0 341.863)" id="g24">
    <path fill="#f09fc0" fill-rule="nonzero" d="m127.671555,220.499603c0,5.134995 -1.083008,9.949005 -3.25,14.442001c-5.415009,-6.178009 -10.270004,-13.940994 -14.561996,-23.287003c-5.656006,-12.395996 -11.513,-21.321991 -17.570007,-26.778c-6.257996,-5.576004 -15.425003,-10.048996 -27.5,-13.417999c5.100006,-1.084 10.521011,-1.625 16.263,-1.625c15.378006,0 27.827011,7.440002 37.344009,22.324005c6.182983,9.627991 9.274994,19.074997 9.274994,28.341995m-69.440006,-49.401993c-11.072994,1.563995 -19.336987,2.345993 -24.791992,2.345993c-4.813993,0 -7.221004,-0.462006 -7.221004,-1.382996c0,-1.405014 5.255003,-2.10701 15.764996,-2.10701c6.018005,0 11.434006,0.382004 16.248001,1.144012m113.487003,62.479996c0,-2.044006 -0.240997,-4.199005 -0.721985,-6.462997c-0.482025,-2.263 -0.943024,-3.396011 -1.384003,-3.396011c-0.240021,0 -0.360992,0.121002 -0.360992,0.362c0,0.280014 0.039978,0.540009 0.120972,0.781006c0.922028,2.442993 1.383026,5.307999 1.383026,8.593994c0,5.049011 -1.534027,9.106003 -4.603027,12.171005c-3.069,3.065002 -7.129974,4.598999 -12.184998,4.598999c-9.708984,0 -19.115997,-4.613998 -28.221985,-13.839996c3.449982,-6.419006 5.175995,-13.199005 5.175995,-20.339005c0,-13.158005 -5.04599,-24.309998 -15.134003,-33.455994c-10.089996,-9.147003 -22.414993,-13.720001 -36.97699,-13.720001c-4.493011,0 -10.651001,0.621994 -18.473011,1.86499c-6.779999,-1.242996 -13.279007,-1.86499 -19.496994,-1.86499c-10.589994,0 -15.886015,1.064011 -15.886015,3.190002c0,1.041992 1.294008,1.963989 3.882019,2.766998c2.58699,0.802002 5.604979,1.202988 9.055998,1.202988c4.171982,0 12.474991,-1.363983 24.911987,-4.091995c8.384007,2.207001 14.983006,5.677002 19.797016,10.411011c4.694,4.612991 11.893997,14.661987 21.60199,30.146988c5.85701,9.387009 12.294998,17.389999 19.315994,24.009003c-5.858002,9.869003 -15.344986,14.803009 -28.46199,14.803009c-13.559998,0 -25.99501,-5.335999 -37.308002,-16.006012c-5.697006,-5.375992 -10.25,-11.312988 -13.66,-17.811996c-3.410007,-6.498001 -5.114002,-12.475998 -5.114002,-17.931c0,-4.332993 1.374008,-7.802994 4.121994,-10.410995c2.747009,-2.606995 6.387009,-3.910995 10.921005,-3.910995c7.662003,0 15.615009,4.131989 23.859013,12.395996c8.243988,8.263 12.365982,16.205994 12.365982,23.828995c0,2.888 -0.802994,5.214005 -2.406982,6.979996c-1.605011,1.765015 -3.711014,2.64801 -6.318008,2.64801c-2.970001,0 -4.453003,-0.48201 -4.453003,-1.445007c0,-0.280991 0.220001,-0.42099 0.662003,-0.42099c0.240005,0 0.44101,0.039993 0.602005,0.120987l0.841995,0c1.964996,0 2.947998,-0.903 2.947998,-2.707993c0,-1.324005 -0.501999,-2.477997 -1.503998,-3.460007c-1.002991,-0.983994 -2.186996,-1.473999 -3.550003,-1.473999c-2.447998,0 -3.671005,1.322998 -3.671005,3.971008c0,1.804993 0.802002,3.348999 2.407013,4.634003c1.604004,1.28299 3.550995,1.924988 5.83699,1.924988c2.928009,0 5.305008,-0.972992 7.130997,-2.918991c1.824005,-1.945999 2.737,-4.48201 2.737,-7.611008c0,-8.103989 -4.221985,-16.388992 -12.665985,-24.85199c-8.445007,-8.464996 -16.719013,-12.697006 -24.82201,-12.697006c-5.576004,0 -10.168991,1.854996 -13.779999,5.56601c-3.610001,3.709991 -5.414993,8.473999 -5.414993,14.291992c0,12.475006 6.15799,23.656998 18.472992,33.546997c12.315006,9.888 26.235996,14.832001 41.761005,14.832001c13.196991,0 23.146011,-4.873993 29.845993,-14.621994c9.787994,9.026001 19.737,13.539001 29.846008,13.539001c5.054993,0 9.147003,-1.633011 12.276001,-4.899002c3.128998,-3.266998 4.692993,-7.544006 4.692993,-12.832001" id="path26"/>
   </g>
   <g transform="matrix(1.33333 0 0 -1.33333 0 341.863)" id="g28">
    <path fill="#f09fc0" fill-rule="nonzero" d="m152.523056,215.444901c0,-1.404007 -0.59201,-2.718002 -1.774994,-3.940994c-1.184021,-1.225006 -2.47702,-1.835007 -3.881012,-1.835007c-1.804993,0 -2.708008,0.902008 -2.708008,2.707001c0,1.324005 0.621002,2.597 1.865021,3.820999c1.242981,1.223999 2.546997,1.835999 3.911987,1.835999c1.723999,0 2.587006,-0.862991 2.587006,-2.587997m0.872986,-24.882004c-0.040985,-0.119995 -0.240997,-0.442001 -0.60199,-0.963989l-2.589996,-3.555008c-7.550995,-10.487 -13.315002,-15.729004 -17.290009,-15.729004c-1.888,0 -3.463989,0.672012 -4.729004,2.016006c-1.265991,1.343002 -1.89798,3.018005 -1.89798,5.024002c0,2.325989 1.384003,5.856995 4.152985,10.591003l9.386017,15.945999c1.242981,-0.281006 2.22699,-0.422012 2.949005,-0.422012c1.082977,0 2.606995,0.141006 4.572998,0.422012l-13.659027,-22.445007c-1.965973,-3.25 -2.948975,-5.757004 -2.948975,-7.522003c0,-1.804993 0.944,-2.708008 2.832001,-2.708008c3.574982,0 9.862,6.369003 18.859985,19.105011c0.200989,0.401001 0.402008,0.602005 0.602997,0.602005c0.240021,0 0.360992,-0.12001 0.360992,-0.361008" id="path30"/>
   </g>
   <g transform="matrix(1.33333 0 0 -1.33333 0 341.863)" id="g32">
    <path fill="#f09fc0" fill-rule="nonzero" d="m179.239334,200.401505c0,2.046005 -0.981995,3.069 -2.946991,3.069c-3.612,0 -8.39502,-3.600998 -14.35202,-10.800995c-5.957001,-7.201004 -8.935974,-13.008011 -8.935974,-17.421005c0,-2.686996 1.162994,-4.030991 3.48999,-4.030991c2.367004,0 6.378998,3.569992 12.033997,10.710983c7.140991,9.026001 10.710999,15.183014 10.710999,18.473007m-19.074005,-35.983994c-0.763,-0.439987 -3.029999,-1.584 -6.799988,-3.429993c-18.292999,-9.065002 -27.438995,-17.209 -27.438995,-24.430008c0,-1.243988 0.460999,-2.286987 1.384003,-3.128998c0.922974,-0.843002 2.105988,-1.263 3.549988,-1.263c4.414001,0 8.705994,2.255997 12.877991,6.769012c4.171021,4.511993 9.406006,12.605988 15.705017,24.279999l0.721985,1.202988zm34.51001,26.085999c0,-0.641998 -2.170013,-3.386002 -6.506012,-8.233002c-4.862,-5.369003 -11.147003,-10.156006 -18.858002,-14.363007l-3.009003,-5.474991c-5.455994,-10.069992 -11.573975,-17.831985 -18.352997,-23.286987c-6.497986,-5.256012 -12.113983,-7.883011 -16.847992,-7.883011c-1.723999,0 -3.148987,0.522003 -4.27301,1.565002c-1.121979,1.042999 -1.68399,2.326004 -1.68399,3.848999c0,8.225006 9.287018,16.569 27.860016,25.033005c4.010986,1.845993 6.598999,3.089996 7.761993,3.731995l10.230988,18.833984c-4.45401,-5.896988 -7.592987,-9.69899 -9.417999,-11.403c-1.825989,-1.705002 -3.700989,-2.556992 -5.626007,-2.556992c-2.086975,0 -3.862,0.921997 -5.325989,2.766998c-1.464996,1.845001 -2.196014,4.091995 -2.196014,6.740005c0,6.938995 4.53302,13.237991 13.598999,18.893997c6.057007,3.770004 10.811005,5.656998 14.262024,5.656998c2.406006,0 3.608978,-1.324005 3.608978,-3.972c0,-0.722 -0.179993,-1.585007 -0.540985,-2.587006l3.368988,6.077011c1.084015,-0.281006 2.026001,-0.421005 2.828003,-0.421005c1.042999,0 2.569,0.139999 4.575012,0.421005c-0.282013,-0.361008 -2.046997,-3.369003 -5.295013,-9.026001l-14.923981,-25.755005c5.255981,2.964005 9.457001,5.830002 12.606995,8.593994c3.148987,2.764008 6.708984,6.749008 10.679993,11.957001c0.60199,0.80101 1.002014,1.203003 1.203003,1.203003c0.182007,-0.041 0.272003,-0.160995 0.272003,-0.360992" id="path34"/>
   </g>
   <g transform="matrix(1.33333 0 0 -1.33333 0 341.863)" id="g36">
    <path fill="#f09fc0" fill-rule="nonzero" d="m214.50206,215.444901c0,-1.404007 -0.592987,-2.718002 -1.774994,-3.940994c-1.184021,-1.225006 -2.477997,-1.835007 -3.881012,-1.835007c-1.806,0 -2.708008,0.902008 -2.708008,2.707001c0,1.324005 0.621002,2.597 1.865021,3.820999c1.242981,1.223999 2.546997,1.835999 3.91098,1.835999c1.725006,0 2.588013,-0.862991 2.588013,-2.587997m0.872009,-24.882004c-0.040009,-0.119995 -0.240021,-0.442001 -0.601013,-0.963989l-2.591003,-3.555008c-7.550995,-10.487 -13.315002,-15.729004 -17.289001,-15.729004c-1.888,0 -3.463989,0.672012 -4.72998,2.016006c-1.265015,1.343002 -1.897003,3.018005 -1.897003,5.024002c0,2.325989 1.382996,5.856995 4.151978,10.591003l9.387024,15.945999c1.242981,-0.281006 2.225983,-0.422012 2.947998,-0.422012c1.083984,0 2.606995,0.141006 4.572998,0.422012l-13.658997,-22.445007c-1.966003,-3.25 -2.947998,-5.757004 -2.947998,-7.522003c0,-1.804993 0.944,-2.708008 2.832001,-2.708008c3.573975,0 9.860992,6.369003 18.858978,19.105011c0.201019,0.401001 0.402008,0.602005 0.602997,0.602005c0.241028,0 0.361023,-0.12001 0.361023,-0.361008" id="path38"/>
   </g>
   <g transform="matrix(1.33333 0 0 -1.33333 0 341.863)" id="g40">
    <path fill="#f09fc0" fill-rule="nonzero" d="m237.669052,204.373108l-0.480988,-0.903l-7.883026,0l-13.418976,-22.925995c-1.645996,-2.768005 -2.46701,-4.973999 -2.46701,-6.619003c0,-1.804993 0.944,-2.707993 2.832001,-2.707993c3.654999,0 9.820984,6.367996 18.497986,19.104996c0.281006,0.401001 0.52301,0.60199 0.723999,0.60199c0.240021,0 0.361023,-0.119995 0.361023,-0.360992c-0.041016,-0.119995 -0.240997,-0.442001 -0.602997,-0.964005l-2.58902,-3.556c-7.550995,-10.485992 -13.233978,-15.727997 -17.048981,-15.727997c-1.888,0 -3.46402,0.682999 -4.730011,2.04599c-1.265015,1.363007 -1.897003,3.068008 -1.897003,5.114014c0,2.406998 1.062012,5.416 3.188995,9.026001l10.110016,16.968994l-6.138,0l0.60199,0.903l6.016998,0l7.040009,11.673996c1.203003,-0.321991 2.346985,-0.481995 3.429993,-0.481995c1.123016,0 2.287018,0.160004 3.48999,0.481995l-6.919983,-11.673996l7.882996,0z" id="path42"/>
   </g>
   <g transform="matrix(1.33333 0 0 -1.33333 0 341.863)" id="g44">
    <path fill="#f09fc0" fill-rule="nonzero" d="m261.55777,200.52211c0,1.964996 -0.902039,2.947998 -2.707031,2.947998c-3.690979,0 -8.53598,-3.610001 -14.531982,-10.830994c-5.998001,-7.221008 -8.995987,-13.057007 -8.995987,-17.511002c0,-2.608002 1.162994,-3.910995 3.48999,-3.910995c2.766998,0 7.559982,4.592987 14.380997,13.779999c5.575989,7.541992 8.364014,12.715988 8.364014,15.524994m16.577972,-9.959c0,-0.843994 -2.931976,-4.740005 -8.795013,-11.690002c-4.738953,-5.705002 -8.473999,-8.557999 -11.204987,-8.557999c-1.848999,0 -3.354004,0.69101 -4.517975,2.076004c-1.165039,1.384003 -1.747986,3.117996 -1.747986,5.205002c0,2.166 0.641968,4.513 1.925964,7.039993c-4.011993,-5.617004 -7.080994,-9.408005 -9.20697,-11.373001c-2.127029,-1.964996 -4.192032,-2.947998 -6.198013,-2.947998c-2.126007,0 -3.911011,0.91301 -5.354004,2.737c-1.445007,1.824997 -2.166992,4.122009 -2.166992,6.889999c0,7.703003 5.434998,14.522003 16.306992,20.459c4.774017,2.647995 8.623993,3.972 11.553009,3.972c2.487,0 3.731018,-1.203995 3.731018,-3.610001c0,-0.682999 -0.161011,-1.585999 -0.481018,-2.707993l3.067993,5.83699c1.203979,-0.281998 2.266998,-0.421997 3.190002,-0.421997c1.083008,0 2.486969,0.139999 4.211975,0.421997l-10.651001,-17.630997c-3.69101,-6.177994 -5.536011,-10.250992 -5.536011,-12.216003c0,-1.884995 0.78302,-2.827988 2.350006,-2.827988c1.606049,0 4.178009,1.837997 7.71405,5.514984c3.534943,3.67601 7.128998,8.206024 10.78595,13.590012c0.240021,0.401001 0.461029,0.602005 0.662018,0.602005c0.240997,0 0.360992,-0.12001 0.360992,-0.361008" id="path46"/>
   </g>
   <g transform="matrix(1.33333 0 0 -1.33333 0 341.863)" id="g48">
    <path fill="#f09fc0" fill-rule="nonzero" d="m309.817566,233.196411c-16.848999,-28.041 -26.667023,-44.529007 -29.454987,-49.462997c-2.788025,-4.934006 -4.182007,-8.20401 -4.182007,-9.807999c0,-1.806 0.763,-2.708008 2.289001,-2.708008c3.375,0 9.561951,6.368011 18.560974,19.104996c0.200012,0.401016 0.440002,0.602005 0.723022,0.602005c0.160004,-0.041 0.23999,-0.160995 0.23999,-0.360992c0,-0.242004 -0.201019,-0.563004 -0.60202,-0.965012l-2.590973,-3.554993c-7.591003,-10.485992 -13.194,-15.727997 -16.808044,-15.727997c-1.72699,0 -3.142944,0.651993 -4.246948,1.955002c-1.105042,1.302994 -1.657013,2.957993 -1.657013,4.964996c0,2.205002 0.511993,4.341003 1.535004,6.40802c1.02301,2.065979 4.50296,8.032974 10.440002,17.901978c7.26001,12.074005 13.37796,22.544006 18.352966,31.410004c1.204041,-0.320999 2.265991,-0.481003 3.189026,-0.481003c1.523987,0 2.927979,0.240997 4.212006,0.722" id="path50"/>
   </g>
   <g transform="matrix(1.33333 0 0 -1.33333 0 341.863)" id="g52">
    <path fill="#f09fc0" fill-rule="nonzero" d="m436.483551,234.279404c0,-2.085999 -0.276978,-4.373001 -0.83197,-6.860001c-0.555054,-2.487991 -1.090027,-3.729996 -1.605042,-3.729996c-0.401978,0 -0.60202,0.199997 -0.60202,0.600998c0,0.121002 0.040009,0.300995 0.121002,0.541992c1.083008,2.807007 1.623993,5.837006 1.623993,9.086014c0,5.054993 -1.505951,9.115997 -4.516937,12.184998c-3.01001,3.069 -6.985046,4.603989 -11.923035,4.603989c-6.623962,0 -13.451019,-2.186996 -20.476044,-6.55899c5.616058,-4.173004 8.424042,-9.046997 8.424042,-14.622009c0,-8.946991 -6.076965,-14.261993 -18.232971,-15.946991c9.98999,-3.490005 14.983978,-9.889008 14.983978,-19.195007c0,-6.899994 -2.939972,-12.937988 -8.81601,-18.112c-5.877014,-5.174988 -12.74704,-7.762985 -20.609009,-7.762985c-3.771027,0 -6.769012,0.973999 -8.995972,2.918991c-2.22699,1.944992 -3.339996,4.582001 -3.339996,7.912994c0,5.134003 2.356995,10.219009 7.069977,15.253006c4.713989,5.035004 9.457001,7.552002 14.231995,7.552002c2.647034,0 4.812988,-0.833008 6.499023,-2.497009c1.684021,-1.664993 2.526978,-3.800995 2.526978,-6.408997c0,-1.563995 -0.480957,-3.509995 -1.444,-5.835999c-0.962982,-2.326996 -1.744995,-3.490005 -2.346985,-3.490005c-0.442017,0 -0.662018,0.159012 -0.662018,0.481003c0,0.160004 0.080017,0.401001 0.23999,0.722c2.08606,3.048004 3.130005,5.796997 3.130005,8.244003c0,2.287003 -0.740997,4.130997 -2.220978,5.535995c-1.483002,1.403 -3.423035,2.106003 -5.824982,2.106003c-4.523987,0 -8.947021,-2.386993 -13.27002,-7.160995c-4.321991,-4.774002 -6.484985,-9.647995 -6.484985,-14.622009c0,-2.647995 0.901001,-4.854996 2.703979,-6.618988c1.801025,-1.764999 4.044006,-2.647995 6.72702,-2.647995c6.126007,0 11.742981,2.978989 16.848938,8.935989c5.105072,5.957001 7.659027,12.505997 7.659027,19.647003c0,6.658997 -3.209961,11.552994 -9.627991,14.681992l-3.48999,-0.42099c-0.963013,-0.12001 -1.926056,-0.181 -2.888977,-0.181c-3.049011,0 -4.572998,0.501999 -4.572998,1.50499c0,0.722 1.263977,1.083008 3.790924,1.083008c1.806061,0 4.191071,-0.361008 7.161041,-1.083008c4.171997,1.283005 7.471008,3.529999 9.89798,6.740005c2.427032,3.209 3.641022,6.897995 3.641022,11.070999c0,4.011002 -1.544983,7.641998 -4.633972,10.891998c-8.785034,-6.740005 -17.049988,-18.173004 -24.791016,-34.298996c-4.774017,-9.908997 -9.146027,-17.089996 -13.118011,-21.542007c-3.850983,-4.292999 -9.326996,-8.205002 -16.427979,-11.735001c-8.384003,-4.091995 -15.866028,-6.136993 -22.444,-6.136993c-5.376038,0 -9.848999,1.233994 -13.419006,3.701004c-3.571014,2.466995 -5.355011,5.544998 -5.355011,9.237c0,2.044998 0.610962,3.809998 1.834991,5.293991c1.223022,1.484009 2.677002,2.227005 4.363037,2.227005c2.445984,0 3.669983,-1.363998 3.669983,-4.091995c0,-1.364014 -0.411011,-2.527008 -1.234009,-3.490005c-0.821991,-0.962006 -1.834991,-1.444 -3.039001,-1.444c-2.086029,0 -3.08902,1.083008 -3.008026,3.249008c0.040009,0.881989 -0.041016,1.32399 -0.240997,1.32399c-0.641998,0 -0.962952,-1.063004 -0.962952,-3.188995c0,-3.330002 1.633972,-6.098999 4.904999,-8.304001c3.268951,-2.205994 7.389984,-3.309006 12.365936,-3.309006c8.785004,0 16.747009,3.249008 23.889038,9.748001c3.087982,2.807007 5.776001,5.746002 8.062988,8.815002c2.286011,3.069 7.522034,10.861008 15.705017,23.378006c3.972046,5.97699 8.744995,12.054001 14.320984,18.231995c5.575958,6.177002 10.249023,10.570007 14.020996,13.177994c-6.338989,5.335007 -15.524963,8.003006 -27.559998,8.003006c-16.929016,0 -31.651001,-6.117996 -44.167969,-18.352997c-10.269043,-10.029007 -15.404053,-19.475998 -15.404053,-28.341995c0,-4.493011 1.444031,-8.063004 4.333038,-10.710999c2.888,-2.647003 6.799957,-3.971008 11.732971,-3.971008c8.063995,0 16.398041,3.871002 25.002045,11.613007c8.605988,7.741989 12.907959,15.263992 12.907959,22.565994c0,5.815994 -2.988953,8.725006 -8.966003,8.725006c-5.977997,0 -12.385956,-3.317001 -19.225952,-9.950012c-6.840027,-6.633987 -10.259033,-12.876999 -10.259033,-18.727997c0,-1.442993 0.482025,-2.685989 1.444031,-3.727005c0.962952,-1.041992 2.085968,-1.562988 3.369995,-1.562988c0.682007,-0.12001 1.02301,-0.281006 1.02301,-0.48201c0,-0.360992 -0.381012,-0.541 -1.143036,-0.541c-1.925964,0 -3.550995,0.871002 -4.873993,2.615997c-1.323975,1.743011 -1.987,3.877014 -1.987,6.402008c0,6.212997 3.431,12.276001 10.291016,18.188004c6.858978,5.912003 13.899963,8.867996 21.120972,8.867996c6.898987,0 10.348999,-3.188995 10.348999,-9.567001c0,-7.783997 -4.391968,-15.645996 -13.178009,-23.589005c-8.785004,-7.942993 -17.449982,-11.914001 -25.994965,-11.914001c-5.575989,0 -10.040039,1.674011 -13.388,5.025009c-3.350037,3.348999 -5.025024,7.832001 -5.025024,13.447998c0,11.352005 6.40799,21.712997 19.226013,31.080002c12.81601,9.367004 26.987,14.050995 42.513,14.050995c11.673004,0 21.580963,-2.627991 29.725037,-7.882996c7.340942,4.572998 14.441925,6.860001 21.302002,6.860001c5.375,0 9.69696,-1.604996 12.966949,-4.813995c3.269012,-3.210007 4.904022,-7.442001 4.904022,-12.697006" id="path54"/>
   </g>
   <g transform="matrix(1.33333 0 0 -1.33333 0 341.863)" id="g56">
    <path fill="#f09fc0" fill-rule="nonzero" d="m437.747284,201.6651c0,1.283997 -0.702026,1.925995 -2.10498,1.925995c-2.127045,0 -4.925049,-1.473999 -8.39502,-4.422989c-3.471039,-2.948013 -6.870026,-6.770004 -10.198975,-11.463013c5.776001,1.483002 10.669983,3.580002 14.681915,6.28801c4.011078,2.707993 6.017059,5.264999 6.017059,7.671997m5.085022,-11.162003c0,-0.119995 -0.362,-0.640991 -1.084045,-1.563004l-2.588989,-3.242996c-8.310974,-10.255005 -15.438019,-15.381989 -21.380981,-15.381989c-2.811035,0 -5.169983,1.013992 -7.077057,3.037994c-1.906006,2.024994 -2.859955,4.562988 -2.859955,7.612c0,7.220993 5.033966,13.578995 15.103027,19.074997c5.295959,2.889008 9.607941,4.332993 12.937958,4.332993c1.444,0 2.677032,-0.431992 3.700989,-1.293991c1.021973,-0.863007 1.534027,-1.916 1.534027,-3.158997c0,-2.888 -1.885986,-5.346008 -5.656036,-7.371002c-3.771942,-2.026001 -10.068939,-3.921997 -18.894928,-5.686996c-2.728027,-4.132004 -4.091003,-7.581009 -4.091003,-10.350006c0,-3.449997 1.866943,-5.175003 5.600952,-5.175003c6.345032,0 14.114014,6.188004 23.311035,18.565002c0.480927,0.641006 0.881958,0.962006 1.204956,0.962006c0.159027,-0.040009 0.240051,-0.161011 0.240051,-0.361008" id="path58"/>
   </g>
   <g transform="matrix(1.33333 0 0 -1.33333 0 341.863)" id="g60">
    <path fill="#f09fc0" fill-rule="nonzero" d="m468.555878,200.52211c0,1.964996 -0.901978,2.947998 -2.70697,2.947998c-3.69104,0 -8.536011,-3.610001 -14.532043,-10.830994c-5.997986,-7.221008 -8.995972,-13.057007 -8.995972,-17.511002c0,-2.608002 1.162964,-3.910995 3.48996,-3.910995c2.766998,0 7.560028,4.592987 14.381012,13.779999c5.575989,7.541992 8.364014,12.715988 8.364014,15.524994m16.578003,-9.959c0,-0.843994 -2.932007,-4.740005 -8.794983,-11.690002c-4.739014,-5.705002 -8.473999,-8.557999 -11.205017,-8.557999c-1.848999,0 -3.354004,0.69101 -4.518005,2.076004c-1.164978,1.384003 -1.747986,3.117996 -1.747986,5.205002c0,2.166 0.641968,4.513 1.925964,7.039993c-4.011993,-5.617004 -7.081024,-9.408005 -9.207001,-11.373001c-2.126984,-1.964996 -4.191986,-2.947998 -6.197968,-2.947998c-2.126038,0 -3.911011,0.91301 -5.354004,2.737c-1.445038,1.824997 -2.166992,4.122009 -2.166992,6.889999c0,7.703003 5.434998,14.522003 16.307007,20.459c4.773987,2.647995 8.623932,3.972 11.552979,3.972c2.487,0 3.731018,-1.203995 3.731018,-3.610001c0,-0.682999 -0.161011,-1.585999 -0.481018,-2.707993l3.067993,5.83699c1.204041,-0.281998 2.267029,-0.421997 3.190002,-0.421997c1.083008,0 2.487,0.139999 4.212036,0.421997l-10.651031,-17.630997c-3.69101,-6.177994 -5.53598,-10.250992 -5.53598,-12.216003c0,-1.884995 0.782959,-2.827988 2.349976,-2.827988c1.605988,0 4.177979,1.837997 7.713989,5.514984c3.535034,3.67601 7.129028,8.206024 10.786011,13.590012c0.23999,0.401001 0.460999,0.602005 0.661957,0.602005c0.241058,0 0.361053,-0.12001 0.361053,-0.361008" id="path62"/>
   </g>
   <g transform="matrix(1.33333 0 0 -1.33333 0 341.863)" id="g64">
    <path fill="#f09fc0" fill-rule="nonzero" d="m523.826416,190.56311c0,-0.923996 -2.911987,-4.820999 -8.734009,-11.690002c-4.821014,-5.705994 -8.636017,-8.557999 -11.446991,-8.557999c-1.767029,0 -3.264038,0.712997 -4.489014,2.136002c-1.225037,1.423996 -1.837067,3.138 -1.837067,5.145004c0,1.563995 0.782043,3.75 2.347076,6.55899l-1.203003,-1.625c-3.692047,-4.733994 -6.400024,-7.903992 -8.124023,-9.506989c-1.885986,-1.806 -3.669983,-2.708008 -5.356018,-2.708008c-1.764954,0 -3.248962,0.69101 -4.451996,2.076004c-1.20401,1.384003 -1.80603,3.078003 -1.80603,5.084c0,2.326004 0.903046,4.994995 2.708038,8.003998l10.952026,18.412994c1.362946,-0.281998 2.425964,-0.421997 3.188965,-0.421997c0.762024,0 2.126038,0.139999 4.092041,0.421997l-14.321075,-23.587997c-1.444977,-2.40799 -2.165924,-4.533997 -2.165924,-6.378998c0,-1.804993 0.760986,-2.707993 2.28595,-2.707993c4.051025,0 10.550049,7.560989 19.497009,22.685989l5.895996,9.988998c1.243073,-0.281998 2.287079,-0.421997 3.129059,-0.421997c1.002991,0 2.427002,0.139999 4.27301,0.421997l-9.628082,-15.705002c-4.573975,-7.46199 -6.859985,-12.256989 -6.859985,-14.381989c0,-1.725006 0.824036,-2.587997 2.471008,-2.587997c3.213989,0 8.436066,5.062988 15.667023,15.187988l1.868042,2.591003l1.083984,1.326004c0.200989,0.401001 0.401978,0.60199 0.602966,0.60199c0.241028,0 0.361023,-0.119995 0.361023,-0.360992" id="path66"/>
   </g>
   <g transform="matrix(1.33333 0 0 -1.33333 0 341.863)" id="g68">
    <path fill="#f09fc0" fill-rule="nonzero" d="m546.000183,204.373108l-0.481018,-0.903l-7.882996,0l-13.419006,-22.925995c-1.645996,-2.768005 -2.46698,-4.973999 -2.46698,-6.619003c0,-1.804993 0.94397,-2.707993 2.832031,-2.707993c3.654968,0 9.820984,6.367996 18.497986,19.104996c0.281006,0.401001 0.52301,0.60199 0.723999,0.60199c0.23999,0 0.360962,-0.119995 0.360962,-0.360992c-0.040955,-0.119995 -0.240967,-0.442001 -0.602966,-0.964005l-2.588989,-3.556c-7.551025,-10.485992 -13.234009,-15.727997 -17.049011,-15.727997c-1.888,0 -3.463989,0.682999 -4.730042,2.04599c-1.264954,1.363007 -1.896973,3.068008 -1.896973,5.114014c0,2.406998 1.062012,5.416 3.189026,9.026001l10.109985,16.968994l-6.138,0l0.60199,0.903l6.017029,0l7.039978,11.673996c1.203003,-0.321991 2.346985,-0.481995 3.429993,-0.481995c1.122986,0 2.286987,0.160004 3.48999,0.481995l-6.919983,-11.673996l7.882996,0z" id="path70"/>
   </g>
   <g transform="matrix(1.33333 0 0 -1.33333 0 341.863)" id="g72">
    <path fill="#f09fc0" fill-rule="nonzero" d="m547.263916,164.417618c-0.643005,-0.360001 -2.908997,-1.503998 -6.799988,-3.429993c-18.252014,-9.065002 -27.379028,-17.209 -27.379028,-24.430008c0,-3.009995 1.684998,-4.513992 5.054993,-4.513992c4.253052,0 8.484009,2.306992 12.696045,6.919998c4.212952,4.613998 9.427002,12.697998 15.645996,24.250992l0.781982,1.203003zm34.75,26.084991c0,-0.600998 -2.208984,-3.345001 -6.625977,-8.231995c-4.900024,-5.369003 -11.286011,-10.216003 -19.15802,-14.543015l-2.947998,-5.294983c-5.817993,-10.429993 -11.89502,-18.192993 -18.233032,-23.286987c-6.539001,-5.256012 -12.215942,-7.883011 -17.028992,-7.883011c-1.644958,0 -3.018982,0.522003 -4.122009,1.565002c-1.102966,1.042999 -1.654968,2.326004 -1.654968,3.848999c0,8.065002 9.288025,16.408005 27.861023,25.033005c1.522949,0.763 3.809998,1.826004 6.858948,3.188995l0.903015,0.542007l10.590027,18.833984c-4.171997,-5.736008 -7.200989,-9.498001 -9.085999,-11.281998c-1.886047,-1.785004 -3.791016,-2.677994 -5.716003,-2.677994c-1.645996,0 -3.079041,0.702988 -4.30304,2.105988c-1.223999,1.404007 -1.834961,3.048996 -1.834961,4.934998c0,2.286011 1.424011,5.856003 4.271973,10.710007l9.267029,15.644989c0.921997,-0.159988 1.984985,-0.23999 3.188965,-0.23999c1.041992,0 2.487,0.139999 4.333008,0.421005l-11.85498,-19.255005c-3.369019,-5.455994 -5.054016,-9.027008 -5.054016,-10.710999c0,-1.806 0.822021,-2.707993 2.46698,-2.707993c4.332031,0 10.991028,7.680984 19.978027,23.04599l5.536011,9.446991c0.921997,-0.159988 2.045959,-0.23999 3.369995,-0.23999c1.083008,0 2.425964,0.139999 4.031006,0.421005c-4.973999,-7.903015 -11.713989,-19.496002 -20.218994,-34.781006c4.899963,2.524994 9.036987,5.257004 12.411987,8.203003c3.372986,2.944 7.148987,7.099991 11.326965,12.468002c0.561035,0.720993 0.923035,1.082993 1.084045,1.082993c0.23999,0 0.359985,-0.121002 0.359985,-0.362" id="path74"/>
   </g>
  </g>
 </g>
</svg>