<?xml version="1.0"?>
<svg width="970" height="342" xmlns="http://www.w3.org/2000/svg">
 <metadata id="metadata8">image/svg+xml</metadata>
 <defs>
  <clipPath clipPathUnits="userSpaceOnUse" id="clipPath18">
   <path d="m3,256.397003l720.79303,0l0,-256.397003l-720.79303,0l0,256.397003z" id="path16"/>
  </clipPath>
 </defs>
 <g>
  <title>background</title>
  <rect fill="none" id="canvas_background" height="344" width="972" y="-1" x="-1"/>
 </g>
 <g>
  <title>Layer 1</title>
  <g id="g10" transform="matrix(1.33333 0 0 -1.33333 0 341.863)">
   <g id="g12">
    <g id="g14" clip-path="url(#clipPath18)">
     <g id="g20">
      <path fill="#f09fc0" fill-rule="nonzero" d="m96.504898,199.140106c-1.103996,1.156998 -1.682999,2.061996 -2.25,3.509995c-0.241997,0.621002 -0.549004,1.198013 -0.68,1.281006c-0.153,0.097 -0.472,0.080994 -0.885002,-0.042999l-0.645996,-0.193008l-0.194,-1.167999c-0.107002,-0.641998 -0.246002,-1.457001 -0.308998,-1.812988l-0.115005,-0.645004l-0.242996,0.565002c-0.134003,0.309998 -0.418999,1.026001 -0.634003,1.589996c-0.464996,1.223007 -0.632996,1.313004 -2.457001,1.315002c-0.725998,0.000992 -1.702995,0.048004 -2.170998,0.104004l-0.851997,0.10199l1.82,0.468002c7.378998,1.901001 13.544998,6.727005 18.064995,14.139999c0.559006,0.917007 1.18,1.897003 1.379005,2.179001c0.198997,0.281006 0.781998,1.380997 1.296997,2.445999c0.513,1.065002 1.020996,2.117996 1.128998,2.339996c0.173004,0.354004 0.185005,0.302002 0.102005,-0.428986c-0.115005,-1.029007 0.059998,-1.378006 0.947998,-1.899002c1.166,-0.683014 2.678001,-0.947998 4.763,-0.834c1.944,0.104996 2.168999,-0.014008 0.876999,-0.462006c-1.096001,-0.380005 -2.663002,-0.473999 -4.153999,-0.25c-2.648003,0.399002 -2.772003,0.399002 -2.982002,0.007004c-0.104996,-0.195007 -0.228996,-0.73201 -0.277,-1.192001c-0.079994,-0.785004 -0.053001,-0.867996 0.457001,-1.378006c0.748001,-0.746002 2.577003,-1.582001 3.931,-1.796997c1.239006,-0.197006 2.980003,-0.093994 4.304001,0.255005c0.463997,0.123001 0.870003,0.196991 0.901001,0.166c0.087997,-0.089005 -0.761002,-0.652008 -1.681999,-1.116013c-2.037003,-1.026001 -4.391998,-1.313995 -6.760002,-0.824997c-1.309998,0.271011 -1.521996,0.231003 -1.521996,-0.28299c0,-0.530014 2.463997,-2.847 3.791,-3.56601l1.129997,-0.610001l-1.775002,0.062012c-1.484001,0.051987 -1.946999,0.133987 -2.823997,0.502991c-1.375,0.580002 -1.563004,0.634003 -1.849998,0.522995c-0.442001,-0.168991 -0.088005,-0.528 2.018997,-2.044998c1.148003,-0.828003 2.066002,-1.526001 2.039001,-1.550995c-0.025002,-0.026001 -1.421005,0.384003 -3.103004,0.912003c-1.681,0.528 -3.168999,0.96199 -3.306,0.962997c-0.368996,0.005005 -1.606995,-1.326004 -1.606995,-1.727997c0,-0.197998 0.386993,-0.764999 0.897995,-1.317001c1.007004,-1.087997 2.302002,-1.824997 3.729004,-2.12001c1.051994,-0.218994 0.900993,-0.471985 -0.281006,-0.475998c-1.320999,-0.00499 -3.117996,0.679001 -4.926994,1.873001c-0.453003,0.300003 -0.943001,0.544006 -1.089005,0.544006c-0.907997,0 0.593002,-3.225006 2.624001,-5.639008c0.505005,-0.598999 0.638,-0.839996 0.417999,-0.758987c-0.820999,0.309998 -2.170998,1.261993 -3.406998,2.404999c-0.743004,0.687988 -1.459999,1.250992 -1.594002,1.250992c-0.677002,0 -0.001999,-1.994003 1.190002,-3.509995c1.361,-1.731003 0.733002,-1.419006 -1.429001,0.71199c-1.451996,1.430008 -2.099998,1.818008 -2.099998,1.254013c0,-0.138 0.292999,-1.235001 0.653,-2.437012c0.360001,-1.201996 0.625,-2.214996 0.590996,-2.25c-0.034996,-0.034988 -0.462997,0.355011 -0.949997,0.865005zm-9.814003,-38.932999c0,1.656006 1.561005,2.839996 4.910004,3.727005c1.807999,0.477997 2.876999,0.972 3.724998,1.714996c0.645004,0.567001 1.205002,1.542999 1.209,2.106995c0.001999,0.298004 0.033005,0.322998 0.159004,0.128006c0.233994,-0.363007 0.191994,-1.891998 -0.065002,-2.389008c-0.498001,-0.953995 -1.528999,-1.567001 -3.565002,-2.115997c-2.045998,-0.552002 -4.355995,-1.757996 -5.445,-2.841995l-0.928001,-0.923004l0,0.593002zm20.514,-20.945999c1.592003,1.638 3.155006,5.343002 2.558006,6.062988c-0.374001,0.451004 -0.852005,0.264008 -1.789001,-0.69899c-1.607002,-1.651993 -3.170998,-5.348999 -2.57,-6.074005c0.375999,-0.452988 0.852997,-0.263992 1.800995,0.710007m-18.621994,-3.710007c3.502998,1.405014 5.907997,2.667999 9.078995,4.768005c2.653,1.757996 4.332001,3.121994 6.742004,5.477005c1.636002,1.595993 1.975998,2.009003 1.936996,2.346985c-0.046997,0.408005 -0.050995,0.409012 -1.5,0.360016c-0.797997,-0.028 -1.846001,-0.161011 -2.328995,-0.296005c-1.296005,-0.363998 -3.184006,-1.365005 -4.626007,-2.451004c-1.248993,-0.940994 -3.812996,-3.470993 -4.893997,-4.826996c-0.300003,-0.376999 -0.664001,-0.684998 -0.807999,-0.684998c-0.143997,0 -0.695,-0.113007 -1.223999,-0.25c-2.701004,-0.701004 -4.318001,-2.081009 -4.676003,-3.992004c-0.239998,-1.281006 0.075005,-1.341995 2.299004,-0.451004m6.907997,-4.753006c0.273003,0.27301 0.396004,0.576019 0.396004,0.975021c0,0.399994 -0.123001,0.702988 -0.396004,0.975998c-0.273003,0.272995 -0.574997,0.395981 -0.974998,0.395981c-0.400002,0 -0.702003,-0.122986 -0.974998,-0.395981c-0.274002,-0.27301 -0.396004,-0.576004 -0.396004,-0.975998c0,-0.399002 0.122002,-0.702011 0.396004,-0.975021c0.272995,-0.27298 0.574997,-0.395996 0.974998,-0.395996c0.400002,0 0.701996,0.123016 0.974998,0.395996m-3.475998,-3.60199c-2.640999,0.431 -5.732002,1.389008 -8.864998,2.748001c-1.194,0.51799 -2.276001,0.942001 -2.405006,0.942001c-0.197998,0 -0.217995,0.342987 -0.125999,2.255005c0.330002,6.918991 2.145004,10.93399 5.403,11.951996c0.788002,0.244995 1.437004,0.326996 2.444,0.302994c0.753998,-0.016998 1.451004,-0.021988 1.547005,-0.011002c0.096001,0.012009 0.487999,0.656006 0.871994,1.432007c0.863007,1.75 2.634003,3.619003 4.065002,4.289993c1.762001,0.826004 2.697998,0.94101 6.642998,0.819c5.053001,-0.156998 6.145004,0.055008 9.016006,1.753006c0.820999,0.485992 1.909996,1.035995 2.419998,1.222992l0.928001,0.341003l-0.000999,-2.136002c-0.000999,-2.917999 -0.286003,-8.442993 -0.555008,-10.732986c-0.122993,-1.03801 -0.377998,-2.303009 -0.567993,-2.809006c-0.825005,-2.194 -3.279999,-5.095001 -6.863007,-8.112c-3.151993,-2.653 -4.908997,-3.608002 -7.696999,-4.182007c-1.362,-0.280998 -4.743996,-0.320999 -6.257996,-0.074997m-32.860001,-65.464996c-0.153,8.709991 -7.787003,21.358994 -23.672001,39.227997c-7.585003,8.528999 -11.827,14.009003 -16.116001,20.811996c-1.842003,2.920006 -1.996002,3.106003 -2.314003,2.789001c-0.199997,-0.200996 -0.153999,-0.481995 0.340004,-2.112999c2.262001,-7.462997 4.393997,-12.684998 8.383003,-20.534996c2.634995,-5.183006 5.103996,-9.471001 8.255997,-14.330002c1.764,-2.719002 1.647999,-2.664001 -0.813,0.389c-1.949001,2.419998 -3.736004,4.888 -5.806004,8.027c-7.031998,10.659012 -12.485001,24.234001 -15.18,37.791992c-0.172997,0.868011 -0.690994,2.348999 -1.411995,4.033005c-4.403,10.293015 -6.769005,20.128006 -7.431,30.895996c-0.034004,0.561005 -0.067001,0.389008 -0.106003,-0.564987l-0.055,-1.371002l-0.115997,1.612991c-0.150002,2.094009 -0.150002,8.12001 -0.001,10.084l0.117996,1.531998l0.054001,-1.209991c0.038002,-0.845001 0.07,-0.990997 0.104004,-0.484009c0.757995,11.044998 2.764,20.230011 6.781997,31.057007c0.862,2.322006 2.807999,6.893997 2.896996,6.805008c0.035004,-0.034012 -0.182999,-0.709015 -0.483994,-1.498016c-0.902,-2.36499 -2.664001,-7.856995 -3.513,-10.953995c-3.223,-11.752991 -4.275002,-24.875992 -2.945,-36.703003c0.339996,-3.019989 1.072998,-7.300003 1.750999,-10.217987c1.211998,-5.214005 1.871994,-6.992004 2.326996,-6.262009c0.075005,0.119003 0.186005,1.498993 0.247002,3.065002c0.359001,9.259995 2.059998,21.371994 4.388,31.242996c3.681,15.613998 8.290001,28.594009 15.553001,43.80101c1.911995,4.00499 8.254997,15.972992 8.465,15.972992c0.025997,0 -0.607002,-1.507004 -1.407001,-3.348007c-8.165001,-18.798996 -14.684998,-38.390991 -18.778,-56.425995c-2.942001,-12.957993 -4.945,-26.666 -5.541,-37.914001c-0.306999,-5.792999 -0.307999,-5.769989 0.393997,-7.421005c1.089005,-2.567993 3.693001,-7.826981 5.276001,-10.659988c5.179001,-9.268005 11.516998,-17.908005 19.813004,-27.012001c11.674,-12.808998 18.940998,-24.235001 20.837997,-32.764c0.595001,-2.669998 0.502003,-7.563004 -0.166,-8.805008c-0.055,-0.10199 -0.112999,0.55101 -0.128998,1.45401l-0.000999,0zm23.958,16.803993c0.111,2.067001 -0.600998,6.990005 -1.590004,10.990005c-1.790001,7.242996 -5.836998,16.355995 -11.318001,25.489998c-1.207993,2.014 -1.711998,2.621002 -1.965996,2.366997c-0.205002,-0.204994 -0.081001,-0.588997 0.961998,-2.996994c4.638,-10.707001 9.219002,-23.217003 12.240997,-33.431999c0.499001,-1.685005 0.939003,-3.161003 0.980003,-3.279007c0.041,-0.116997 0.200996,-0.189995 0.356003,-0.158997c0.224998,0.042 0.292999,0.252998 0.334999,1.019997m2.100998,-7.214996c0.566002,0.793999 2.071999,3.781998 2.662003,5.278c2.845001,7.223 2.431,15.597 -1.228004,24.844002c-2.140999,5.411995 -6.254997,12.567001 -10.413002,18.110001c-0.862,1.151001 -1.242996,1.401001 -1.421997,0.933998c-0.050003,-0.129997 0.275002,-1.165001 0.721001,-2.299004c3.103004,-7.886993 5.595001,-16.432999 7.022003,-24.084984c1.186996,-6.364006 1.556999,-10.183006 1.655998,-17.102005c0.044998,-3.150002 0.110001,-5.818001 0.145996,-5.93c0.109001,-0.341003 0.521004,-0.222 0.856003,0.249001l0,0.000992zm-8.445999,-18.157005c1.223,1.382004 3.266998,4.554001 4.289001,6.656006c1.105995,2.275009 1.119995,2.395996 0.708,6.311996c-1.009003,9.609001 -3.922005,18.69001 -9.155006,28.535004c-5.082993,9.565002 -9.041996,18.353012 -10.970997,24.361c-2.726997,8.491997 -3.075001,9.46299 -4.222,11.795998c-0.932999,1.895996 -1.392998,2.632004 -2.189999,3.499008c-0.813,0.885986 -1.089001,1.087997 -1.423,1.047989c-0.368999,-0.042999 -0.447998,-0.175003 -0.706001,-1.177994c-0.823997,-3.216003 -1.155998,-7.840004 -0.785999,-10.982002c0.971001,-8.259003 4.610001,-15.754997 11.853004,-24.415001c3.670998,-4.389999 5.195999,-6.529999 7.095993,-9.962997c2.452003,-4.43 4.303001,-9.928001 5.130005,-15.243004c0.312996,-2.006996 0.361,-2.971992 0.368996,-7.236992c0.010002,-5.258011 -0.142998,-7.036011 -0.969002,-11.292999c-0.215996,-1.110001 -0.391998,-2.180008 -0.391998,-2.379013c-0.001999,-0.625 0.566002,-0.423996 1.369003,0.483002m-17.329002,-51.144989c-1.461998,2.459 -2.495998,5.217987 -3.017998,8.051987c-0.375999,2.045013 -0.376999,6.418015 -0.001999,8.528c1.077999,6.052002 3.310997,11.140015 7.943001,18.103012c4.174995,6.276001 5.866997,10.699997 6.346001,16.599991c0.168999,2.07901 0.034996,5.264008 -0.317001,7.56601c-1.513,9.884995 -7.922001,21.261993 -18.719002,33.234993c-9.047001,10.028999 -13.757,19.219002 -15.421001,30.088005c-0.389999,2.546997 -0.473999,9.893005 -0.147999,12.974991c0.602001,5.684006 2.013,11.13501 4.542999,17.546997c2.379002,6.027008 5.054001,11.018005 10.579002,19.733002c8.134998,12.834 15.147003,26.106003 21.394997,40.49501c2.813004,6.479996 5.782005,14.677002 8.239998,22.748001c1.096008,3.595001 3.834007,14.437988 4.392006,17.378998c0.205002,1.084991 0.394997,1.949982 0.422997,1.921997c0.090004,-0.089996 -0.434998,-4.962006 -0.846001,-7.847c-0.432999,-3.043991 -1.303001,-8.059998 -1.936996,-11.175003c-0.217003,-1.065994 -0.395004,-2.071991 -0.395004,-2.237991c0,-0.542007 0.608002,-0.32901 2.059006,0.718994c7.243996,5.233994 12.174995,7.458008 14.436996,6.51001c0.333,-0.139008 0.606003,-0.312012 0.606003,-0.38501c0,-0.072006 -0.714005,-0.403992 -1.585999,-0.737c-4.522003,-1.725998 -10.114006,-4.880997 -14.573006,-8.220001l-1.721001,-1.289001l-1.165993,-4.699997c-3.778008,-15.824997 -7.514008,-28.429993 -14.116005,-48.216995c-1.548996,-4.641998 -2.815998,-8.542007 -2.815998,-8.669998c0,-0.128006 0.322998,-0.914001 0.716999,-1.747009c1.120003,-2.368988 1.888,-5.325989 2.433998,-9.37999c0.393005,-2.914001 1.044006,-4.501007 2.32,-5.654007c1.774002,-1.602005 4.448997,-2.186996 7.844002,-1.714996c0.68,0.095001 1.266998,0.141998 1.304001,0.104996c0.163002,-0.162003 -2.724998,-2.278992 -3.949997,-2.895996c-1.101006,-0.554001 -1.554001,-0.69101 -2.445999,-0.742004c-1.416,-0.080002 -2.088005,0.154999 -2.974007,1.042007c-1.465996,1.464996 -2.436996,4.260986 -2.990997,8.610992c-0.523994,4.102997 -1.192001,6.903 -2.179001,9.134995c-0.401001,0.906006 -0.896,1.164001 -1.123001,0.585007c-1.139,-2.904999 -8.959,-24.541992 -8.959,-24.787003c0,-0.123993 1.832001,-1.215988 4.155003,-2.477005c13.884998,-7.537003 26.022999,-15.945992 38.543995,-26.700996c3.438004,-2.951996 4.144005,-3.493996 5.783005,-4.432999c2.543999,-1.457001 5.074997,-2.143997 7.875,-2.139c5.155998,0.010002 9.830002,2.389 15.498001,7.892006c4.994003,4.848 10.748001,12.913994 15.742004,22.071999c1.11499,2.041992 1.454987,2.565994 1.151001,1.774994c-2.712006,-7.078003 -4.348007,-10.686005 -6.722,-14.831993c-2.912003,-5.085007 -5.268997,-8.232002 -8.561005,-11.425003c-2.417999,-2.346001 -4.402,-3.804001 -6.995003,-5.139c-3.460999,-1.786003 -6.302002,-2.487 -10.164001,-2.510002c-3.230995,-0.019997 -6.258995,0.474998 -9.262001,1.511002c-1.280998,0.443001 -1.709,0.433998 -1.709,-0.034996c0,-0.199005 0.258003,-1.016006 0.572998,-1.814003c3.690002,-9.371002 3.677002,-20.291 -0.038994,-29.683998c-2.731003,-6.903 -6.163002,-12.384003 -11.957001,-19.093002l-1.859001,-2.151993l-0.286003,-2.526001c-0.331001,-2.916 -0.784996,-5.147003 -1.466995,-7.205002c-2.022003,-6.104004 -5.737999,-10.240997 -11.162003,-12.428009c-1.290001,-0.521988 -3.649002,-1.25 -3.649002,-1.128998c0,0.031006 0.635002,0.397995 1.412003,0.818008c3.353004,1.810989 6.531998,4.371994 8.276001,6.666c0.986,1.298996 2.125,3.599991 2.487,5.023987c0.296997,1.169006 0.511002,4.088013 0.348,4.740005c-0.223999,0.891006 -0.954002,0.449005 -4.778999,-2.893997c-5.705002,-4.985001 -12.344002,-13.292999 -15.334999,-19.192001c-3.417,-6.736008 -3.970001,-15.042999 -1.605003,-24.087997c0.267002,-1.020996 0.466003,-1.875 0.443001,-1.89801c-0.023998,-0.023987 -0.434998,0.617004 -0.913998,1.424011l-0.001003,0.593002z" id="path22"/>
     </g>
     <g id="g24">
      <path fill="#f09fc0" fill-rule="nonzero" d="m269.421906,176.999496c0,5.134995 -1.083008,9.949005 -3.25,14.442001c-5.415009,-6.178009 -10.270004,-13.940994 -14.561996,-23.287003c-5.656006,-12.395996 -11.513,-21.321991 -17.570007,-26.778c-6.257996,-5.576004 -15.425003,-10.048996 -27.5,-13.417999c5.100006,-1.084 10.521011,-1.625 16.263,-1.625c15.378006,0 27.827011,7.440002 37.344009,22.324005c6.182983,9.627991 9.274994,19.074997 9.274994,28.341995m-69.440002,-49.402c-11.072998,1.564003 -19.33699,2.346001 -24.791992,2.346001c-4.813995,0 -7.221008,-0.462006 -7.221008,-1.382996c0,-1.405006 5.255005,-2.107002 15.764999,-2.107002c6.018005,0 11.434006,0.381996 16.248001,1.143997m113.487,62.480003c0,-2.044006 -0.240997,-4.199005 -0.721985,-6.462997c-0.482025,-2.263 -0.943024,-3.396011 -1.384003,-3.396011c-0.240021,0 -0.360992,0.121002 -0.360992,0.362c0,0.280014 0.039978,0.540009 0.120972,0.781006c0.922028,2.442993 1.383026,5.307999 1.383026,8.593994c0,5.049011 -1.534027,9.106003 -4.603027,12.171005c-3.069,3.065002 -7.129974,4.598999 -12.184998,4.598999c-9.708984,0 -19.115997,-4.613998 -28.221985,-13.839996c3.449982,-6.419006 5.175995,-13.199005 5.175995,-20.339005c0,-13.158005 -5.04599,-24.309998 -15.134003,-33.455994c-10.089996,-9.147003 -22.414993,-13.720001 -36.97699,-13.720001c-4.493011,0 -10.651001,0.622002 -18.473007,1.864998c-6.779999,-1.242996 -13.279007,-1.864998 -19.496994,-1.864998c-10.589996,0 -15.886017,1.064003 -15.886017,3.190002c0,1.041992 1.294006,1.963989 3.882019,2.766998c2.58699,0.802002 5.60498,1.202988 9.056,1.202988c4.171982,0 12.474991,-1.363983 24.911987,-4.091995c8.384003,2.207001 14.983002,5.677002 19.797012,10.411011c4.694,4.612991 11.893997,14.661987 21.60199,30.146988c5.85701,9.387009 12.294998,17.389999 19.315994,24.009003c-5.858002,9.869003 -15.344986,14.803009 -28.46199,14.803009c-13.559998,0 -25.99501,-5.335999 -37.307999,-16.006012c-5.697006,-5.375992 -10.25,-11.312988 -13.660004,-17.811996c-3.410004,-6.498001 -5.113998,-12.475998 -5.113998,-17.931c0,-4.332993 1.374008,-7.802994 4.121994,-10.410995c2.747009,-2.606995 6.387009,-3.910995 10.921005,-3.910995c7.662003,0 15.615005,4.131989 23.859009,12.395996c8.243988,8.263 12.365982,16.205994 12.365982,23.828995c0,2.888 -0.802994,5.214005 -2.406982,6.979996c-1.605011,1.765015 -3.711014,2.64801 -6.318008,2.64801c-2.970001,0 -4.453003,-0.48201 -4.453003,-1.445007c0,-0.280991 0.220001,-0.42099 0.662003,-0.42099c0.240005,0 0.44101,0.039993 0.602005,0.120987l0.841995,0c1.964996,0 2.947998,-0.903 2.947998,-2.707993c0,-1.324005 -0.501999,-2.477997 -1.503998,-3.460007c-1.002991,-0.983994 -2.186996,-1.473999 -3.550003,-1.473999c-2.447998,0 -3.671005,1.322998 -3.671005,3.971008c0,1.804993 0.802002,3.348999 2.407013,4.634003c1.604004,1.28299 3.550995,1.924988 5.83699,1.924988c2.928009,0 5.305008,-0.972992 7.130997,-2.918991c1.824005,-1.945999 2.737,-4.48201 2.737,-7.611008c0,-8.103989 -4.221985,-16.388992 -12.665985,-24.85199c-8.445007,-8.464996 -16.719009,-12.697006 -24.822006,-12.697006c-5.576004,0 -10.168991,1.854996 -13.779999,5.56601c-3.610001,3.709991 -5.414993,8.473999 -5.414993,14.291992c0,12.475006 6.15799,23.656998 18.472992,33.546997c12.315002,9.888 26.235992,14.832001 41.761002,14.832001c13.196991,0 23.146011,-4.873993 29.845993,-14.621994c9.787994,9.026001 19.737,13.539001 29.846008,13.539001c5.054993,0 9.147003,-1.633011 12.276001,-4.899002c3.128998,-3.266998 4.692993,-7.544006 4.692993,-12.832001" id="path26"/>
     </g>
     <g id="g28">
      <path fill="#f09fc0" fill-rule="nonzero" d="m294.273407,171.944794c0,-1.404007 -0.59201,-2.718002 -1.774994,-3.940994c-1.184021,-1.225006 -2.47702,-1.835007 -3.881012,-1.835007c-1.804993,0 -2.708008,0.902008 -2.708008,2.707001c0,1.324005 0.621002,2.597 1.865021,3.820999c1.242981,1.223999 2.546997,1.835999 3.911987,1.835999c1.723999,0 2.587006,-0.862991 2.587006,-2.587997m0.872986,-24.882004c-0.040985,-0.119995 -0.240997,-0.442001 -0.60199,-0.963989l-2.589996,-3.555008c-7.550995,-10.487 -13.315002,-15.728996 -17.290009,-15.728996c-1.888,0 -3.463989,0.671997 -4.729004,2.015999c-1.265991,1.343002 -1.89798,3.01799 -1.89798,5.024002c0,2.325989 1.384003,5.856995 4.152985,10.591003l9.386017,15.945999c1.242981,-0.281006 2.22699,-0.422012 2.949005,-0.422012c1.082977,0 2.606995,0.141006 4.572998,0.422012l-13.659027,-22.445007c-1.965973,-3.25 -2.948975,-5.757004 -2.948975,-7.522003c0,-1.804993 0.944,-2.708 2.832001,-2.708c3.574982,0 9.862,6.368996 18.859985,19.105003c0.200989,0.401001 0.402008,0.602005 0.602997,0.602005c0.240021,0 0.360992,-0.12001 0.360992,-0.361008" id="path30"/>
     </g>
     <g id="g32">
      <path fill="#f09fc0" fill-rule="nonzero" d="m320.989685,156.901398c0,2.046005 -0.981995,3.069 -2.946991,3.069c-3.612,0 -8.39502,-3.600998 -14.35202,-10.800995c-5.957001,-7.201004 -8.935974,-13.008011 -8.935974,-17.421005c0,-2.686996 1.162994,-4.030998 3.48999,-4.030998c2.367004,0 6.378998,3.57 12.033997,10.710991c7.140991,9.026001 10.710999,15.183014 10.710999,18.473007m-19.074005,-35.984001c-0.763,-0.439995 -3.029999,-1.584 -6.799988,-3.43c-18.292999,-9.065002 -27.438995,-17.209 -27.438995,-24.43c0,-1.243996 0.460999,-2.286995 1.384003,-3.128998c0.922974,-0.843002 2.105988,-1.263 3.549988,-1.263c4.414001,0 8.705994,2.255997 12.877991,6.769005c4.171021,4.511993 9.406006,12.605995 15.705017,24.279999l0.721985,1.202995zm34.51001,26.086006c0,-0.641998 -2.170013,-3.386002 -6.506012,-8.233002c-4.862,-5.369003 -11.147003,-10.156006 -18.858002,-14.363007l-3.009003,-5.474998c-5.455994,-10.07 -11.573975,-17.831993 -18.352997,-23.286995c-6.497986,-5.256004 -12.113983,-7.883003 -16.847992,-7.883003c-1.723999,0 -3.148987,0.522003 -4.27301,1.565002c-1.121979,1.042999 -1.68399,2.325996 -1.68399,3.848999c0,8.224998 9.287018,16.569 27.860016,25.032997c4.010986,1.846001 6.598999,3.089996 7.761993,3.732002l10.230988,18.833992c-4.45401,-5.896988 -7.592987,-9.69899 -9.417999,-11.403c-1.825989,-1.704994 -3.700989,-2.556992 -5.626007,-2.556992c-2.086975,0 -3.862,0.921997 -5.325989,2.766998c-1.464996,1.845001 -2.196014,4.091995 -2.196014,6.740005c0,6.938995 4.53302,13.237991 13.598999,18.893997c6.057007,3.770004 10.811005,5.656998 14.262024,5.656998c2.406006,0 3.608978,-1.324005 3.608978,-3.972c0,-0.722 -0.179993,-1.585007 -0.540985,-2.587006l3.368988,6.077011c1.084015,-0.281006 2.026001,-0.421005 2.828003,-0.421005c1.042999,0 2.569,0.139999 4.575012,0.421005c-0.282013,-0.361008 -2.046997,-3.369003 -5.295013,-9.026001l-14.923981,-25.755005c5.255981,2.964005 9.457001,5.830002 12.606995,8.593994c3.148987,2.764008 6.708984,6.749008 10.679993,11.957001c0.60199,0.80101 1.002014,1.203003 1.203003,1.203003c0.182007,-0.041 0.272003,-0.160995 0.272003,-0.360992" id="path34"/>
     </g>
     <g id="g36">
      <path fill="#f09fc0" fill-rule="nonzero" d="m356.252411,171.944794c0,-1.404007 -0.592987,-2.718002 -1.774994,-3.940994c-1.184021,-1.225006 -2.477997,-1.835007 -3.881012,-1.835007c-1.806,0 -2.708008,0.902008 -2.708008,2.707001c0,1.324005 0.621002,2.597 1.865021,3.820999c1.242981,1.223999 2.546997,1.835999 3.91098,1.835999c1.725006,0 2.588013,-0.862991 2.588013,-2.587997m0.872009,-24.882004c-0.040009,-0.119995 -0.240021,-0.442001 -0.601013,-0.963989l-2.591003,-3.555008c-7.550995,-10.487 -13.315002,-15.728996 -17.289001,-15.728996c-1.888,0 -3.463989,0.671997 -4.72998,2.015999c-1.265015,1.343002 -1.897003,3.01799 -1.897003,5.024002c0,2.325989 1.382996,5.856995 4.151978,10.591003l9.387024,15.945999c1.242981,-0.281006 2.225983,-0.422012 2.947998,-0.422012c1.083984,0 2.606995,0.141006 4.572998,0.422012l-13.658997,-22.445007c-1.966003,-3.25 -2.947998,-5.757004 -2.947998,-7.522003c0,-1.804993 0.944,-2.708 2.832001,-2.708c3.573975,0 9.860992,6.368996 18.858978,19.105003c0.201019,0.401001 0.402008,0.602005 0.602997,0.602005c0.241028,0 0.361023,-0.12001 0.361023,-0.361008" id="path38"/>
     </g>
     <g id="g40">
      <path fill="#f09fc0" fill-rule="nonzero" d="m379.419403,160.873001l-0.480988,-0.903l-7.883026,0l-13.418976,-22.925995c-1.645996,-2.768005 -2.46701,-4.973999 -2.46701,-6.619003c0,-1.804993 0.944,-2.708 2.832001,-2.708c3.654999,0 9.820984,6.368004 18.497986,19.105003c0.281006,0.401001 0.52301,0.60199 0.723999,0.60199c0.240021,0 0.361023,-0.119995 0.361023,-0.360992c-0.041016,-0.119995 -0.240997,-0.442001 -0.602997,-0.964005l-2.58902,-3.556c-7.550995,-10.485992 -13.233978,-15.727997 -17.048981,-15.727997c-1.888,0 -3.46402,0.682999 -4.730011,2.04599c-1.265015,1.363007 -1.897003,3.068008 -1.897003,5.114014c0,2.406998 1.062012,5.416 3.188995,9.026001l10.110016,16.968994l-6.138,0l0.60199,0.903l6.016998,0l7.040009,11.673996c1.203003,-0.321991 2.346985,-0.481995 3.429993,-0.481995c1.123016,0 2.287018,0.160004 3.48999,0.481995l-6.919983,-11.673996l7.882996,0z" id="path42"/>
     </g>
     <g id="g44">
      <path fill="#f09fc0" fill-rule="nonzero" d="m403.308105,157.022003c0,1.964996 -0.902008,2.947998 -2.707001,2.947998c-3.69101,0 -8.536011,-3.610001 -14.532013,-10.830994c-5.997986,-7.221008 -8.995972,-13.057007 -8.995972,-17.511002c0,-2.608002 1.162994,-3.911003 3.48999,-3.911003c2.766998,0 7.559998,4.592995 14.380981,13.780006c5.576019,7.541992 8.364014,12.715988 8.364014,15.524994m16.578003,-9.959c0,-0.843994 -2.932007,-4.740005 -8.795013,-11.690002c-4.738983,-5.705002 -8.473999,-8.557999 -11.204987,-8.557999c-1.848999,0 -3.354004,0.691002 -4.518005,2.076004c-1.165009,1.384003 -1.747986,3.117996 -1.747986,5.205002c0,2.166 0.641998,4.513 1.925995,7.039993c-4.011993,-5.617004 -7.080994,-9.408005 -9.207001,-11.373001c-2.127014,-1.964996 -4.192017,-2.947998 -6.197998,-2.947998c-2.126007,0 -3.911011,0.913002 -5.354004,2.737c-1.445007,1.824997 -2.166992,4.122009 -2.166992,6.889999c0,7.703003 5.434998,14.522003 16.306976,20.459c4.774017,2.647995 8.624023,3.972 11.553009,3.972c2.487,0 3.731018,-1.203995 3.731018,-3.610001c0,-0.682999 -0.161011,-1.585999 -0.481018,-2.707993l3.067993,5.83699c1.20401,-0.281998 2.266998,-0.421997 3.190002,-0.421997c1.083008,0 2.487,0.139999 4.212006,0.421997l-10.651001,-17.630997c-3.69101,-6.177994 -5.536011,-10.250992 -5.536011,-12.216003c0,-1.884995 0.78302,-2.827995 2.350006,-2.827995c1.606018,0 4.178009,1.838005 7.71402,5.514992c3.534973,3.67601 7.128998,8.206009 10.78598,13.590012c0.240021,0.401001 0.460999,0.602005 0.662018,0.602005c0.240997,0 0.360992,-0.12001 0.360992,-0.361008" id="path46"/>
     </g>
     <g id="g48">
      <path fill="#f09fc0" fill-rule="nonzero" d="m451.567902,189.696304c-16.848999,-28.041 -26.666992,-44.529007 -29.454987,-49.462997c-2.788025,-4.934006 -4.182007,-8.20401 -4.182007,-9.807999c0,-1.806 0.763,-2.708008 2.289001,-2.708008c3.375,0 9.561981,6.368011 18.561005,19.104996c0.199982,0.401016 0.439972,0.602005 0.722992,0.602005c0.160004,-0.041 0.23999,-0.160995 0.23999,-0.360992c0,-0.242004 -0.200989,-0.563004 -0.60199,-0.965012l-2.591003,-3.554993c-7.591003,-10.485992 -13.194,-15.728004 -16.808014,-15.728004c-1.72699,0 -3.142975,0.652 -4.246979,1.955009c-1.105011,1.302994 -1.657013,2.957993 -1.657013,4.964996c0,2.205002 0.511993,4.341003 1.535004,6.408005c1.02301,2.065994 4.502991,8.03299 10.440002,17.901993c7.26001,12.074005 13.377991,22.544006 18.352997,31.410004c1.20401,-0.320999 2.265991,-0.481003 3.188995,-0.481003c1.524017,0 2.928009,0.240997 4.212006,0.722" id="path50"/>
     </g>
     <g id="g52">
      <path fill="#f09fc0" fill-rule="nonzero" d="m578.233887,190.779297c0,-2.085999 -0.276978,-4.373001 -0.83197,-6.860001c-0.555054,-2.487991 -1.090027,-3.729996 -1.605042,-3.729996c-0.401978,0 -0.60199,0.199997 -0.60199,0.600998c0,0.121002 0.039978,0.300995 0.120972,0.541992c1.083008,2.807007 1.624023,5.837006 1.624023,9.086014c0,5.054993 -1.505981,9.115997 -4.516968,12.184998c-3.01001,3.069 -6.985046,4.603989 -11.923035,4.603989c-6.623962,0 -13.450989,-2.186996 -20.476013,-6.55899c5.616028,-4.173004 8.424011,-9.046997 8.424011,-14.622009c0,-8.946991 -6.076965,-14.261993 -18.232971,-15.946991c9.98999,-3.490005 14.984009,-9.889008 14.984009,-19.195007c0,-6.899994 -2.940002,-12.937988 -8.81604,-18.112c-5.877014,-5.174995 -12.747009,-7.762993 -20.609009,-7.762993c-3.770996,0 -6.768982,0.973999 -8.995972,2.918999c-2.22699,1.944992 -3.339996,4.582001 -3.339996,7.912994c0,5.134003 2.356995,10.219009 7.070007,15.253006c4.713959,5.035004 9.457001,7.552002 14.231964,7.552002c2.647034,0 4.812988,-0.833008 6.499023,-2.497009c1.684021,-1.664993 2.526978,-3.800995 2.526978,-6.408997c0,-1.563995 -0.480957,-3.509995 -1.44397,-5.835999c-0.963013,-2.326996 -1.744995,-3.490005 -2.346985,-3.490005c-0.442017,0 -0.662048,0.159012 -0.662048,0.481003c0,0.160004 0.080017,0.401001 0.23999,0.722c2.08606,3.048004 3.130005,5.796997 3.130005,8.244003c0,2.287003 -0.740967,4.130997 -2.220947,5.535995c-1.483032,1.403 -3.423035,2.106003 -5.825012,2.106003c-4.523987,0 -8.947021,-2.386993 -13.27002,-7.160995c-4.321991,-4.774002 -6.484985,-9.647995 -6.484985,-14.622009c0,-2.647995 0.901001,-4.854996 2.703979,-6.618988c1.801025,-1.765007 4.044006,-2.648003 6.727051,-2.648003c6.125977,0 11.742981,2.978996 16.848938,8.935997c5.105042,5.957001 7.658997,12.505997 7.658997,19.647003c0,6.658997 -3.209961,11.552994 -9.627991,14.681992l-3.48999,-0.42099c-0.963013,-0.12001 -1.926025,-0.181 -2.888977,-0.181c-3.049011,0 -4.572998,0.501999 -4.572998,1.50499c0,0.722 1.263977,1.083008 3.790955,1.083008c1.80603,0 4.19104,-0.361008 7.161011,-1.083008c4.171997,1.283005 7.471008,3.529999 9.89801,6.740005c2.427002,3.209 3.640991,6.897995 3.640991,11.070999c0,4.011002 -1.544983,7.641998 -4.633972,10.891998c-8.785034,-6.740005 -17.049988,-18.173004 -24.791016,-34.298996c-4.773987,-9.908997 -9.145996,-17.089996 -13.117981,-21.542007c-3.851013,-4.292999 -9.327026,-8.205002 -16.428009,-11.735001c-8.384003,-4.091995 -15.865997,-6.136993 -22.444,-6.136993c-5.376007,0 -9.848999,1.233994 -13.419006,3.701004c-3.570984,2.466995 -5.35498,5.544998 -5.35498,9.237c0,2.044998 0.610962,3.809998 1.834961,5.293991c1.223022,1.484009 2.677032,2.227005 4.363037,2.227005c2.445984,0 3.669983,-1.363998 3.669983,-4.091995c0,-1.364014 -0.411011,-2.527008 -1.234009,-3.490005c-0.821991,-0.962006 -1.834991,-1.444 -3.039001,-1.444c-2.085999,0 -3.088989,1.083008 -3.007996,3.249008c0.040009,0.881989 -0.041016,1.32399 -0.240997,1.32399c-0.641998,0 -0.962982,-1.063004 -0.962982,-3.188995c0,-3.330002 1.634003,-6.098999 4.904999,-8.304001c3.268982,-2.206001 7.389984,-3.309006 12.365967,-3.309006c8.785004,0 16.747009,3.249008 23.889008,9.748001c3.088013,2.807007 5.776001,5.746002 8.063019,8.815002c2.28598,3.069 7.522003,10.861008 15.704987,23.378006c3.972046,5.97699 8.744995,12.054001 14.320984,18.231995c5.575989,6.177002 10.249023,10.570007 14.020996,13.177994c-6.338989,5.335007 -15.524963,8.003006 -27.559967,8.003006c-16.929016,0 -31.651001,-6.117996 -44.167999,-18.352997c-10.269012,-10.029007 -15.404022,-19.475998 -15.404022,-28.341995c0,-4.493011 1.444031,-8.063004 4.333008,-10.710999c2.888,-2.647003 6.799988,-3.971008 11.733002,-3.971008c8.063995,0 16.39801,3.871002 25.002014,11.613007c8.605988,7.741989 12.90799,15.263992 12.90799,22.565994c0,5.815994 -2.988983,8.725006 -8.966003,8.725006c-5.977997,0 -12.385986,-3.317001 -19.225983,-9.950012c-6.839996,-6.633987 -10.259003,-12.876999 -10.259003,-18.727997c0,-1.442993 0.481995,-2.685989 1.444,-3.727005c0.962982,-1.041992 2.085999,-1.562988 3.369995,-1.562988c0.682007,-0.12001 1.02301,-0.281006 1.02301,-0.48201c0,-0.360992 -0.381012,-0.541 -1.143005,-0.541c-1.925995,0 -3.551025,0.871002 -4.874023,2.615997c-1.323975,1.743011 -1.986969,3.877014 -1.986969,6.402008c0,6.212997 3.431,12.276001 10.290985,18.188004c6.859009,5.912003 13.899994,8.867996 21.121002,8.867996c6.898987,0 10.348999,-3.188995 10.348999,-9.567001c0,-7.783997 -4.391998,-15.645996 -13.178009,-23.589005c-8.785004,-7.942993 -17.450012,-11.914001 -25.994995,-11.914001c-5.575989,0 -10.040009,1.674011 -13.388,5.025009c-3.350006,3.348999 -5.024994,7.832001 -5.024994,13.447998c0,11.352005 6.40799,21.712997 19.225983,31.080002c12.81601,9.367004 26.987,14.050995 42.513,14.050995c11.673035,0 21.580994,-2.627991 29.725037,-7.882996c7.340942,4.572998 14.441956,6.860001 21.302002,6.860001c5.375,0 9.69696,-1.604996 12.96698,-4.813995c3.268982,-3.210007 4.903992,-7.442001 4.903992,-12.697006" id="path54"/>
     </g>
     <g id="g56">
      <path fill="#f09fc0" fill-rule="nonzero" d="m579.49762,158.164993c0,1.283997 -0.702026,1.925995 -2.10498,1.925995c-2.127014,0 -4.925049,-1.473999 -8.39502,-4.422989c-3.471008,-2.948013 -6.869995,-6.770004 -10.198975,-11.463013c5.776001,1.483002 10.669983,3.580002 14.681946,6.28801c4.011047,2.707993 6.017029,5.264999 6.017029,7.671997m5.085022,-11.162003c0,-0.119995 -0.362,-0.640991 -1.084045,-1.563004l-2.588989,-3.242996c-8.310974,-10.255005 -15.437988,-15.381996 -21.380981,-15.381996c-2.811035,0 -5.169983,1.014 -7.077026,3.038002c-1.906006,2.024994 -2.859985,4.562988 -2.859985,7.612c0,7.220993 5.033997,13.578995 15.103027,19.074997c5.295959,2.889008 9.607971,4.332993 12.937988,4.332993c1.44397,0 2.677002,-0.431992 3.700989,-1.293991c1.021973,-0.863007 1.533997,-1.916 1.533997,-3.158997c0,-2.888 -1.885986,-5.346008 -5.656006,-7.371002c-3.771973,-2.026001 -10.06897,-3.921997 -18.894958,-5.686996c-2.728027,-4.132004 -4.091003,-7.581009 -4.091003,-10.350006c0,-3.449997 1.866943,-5.175003 5.600952,-5.175003c6.345032,0 14.114014,6.188004 23.311035,18.565002c0.480957,0.641006 0.881958,0.962006 1.204956,0.962006c0.159058,-0.040009 0.240051,-0.161011 0.240051,-0.361008" id="path58"/>
     </g>
     <g id="g60">
      <path fill="#f09fc0" fill-rule="nonzero" d="m610.306213,157.022003c0,1.964996 -0.901978,2.947998 -2.70697,2.947998c-3.69104,0 -8.536011,-3.610001 -14.532043,-10.830994c-5.997986,-7.221008 -8.995972,-13.057007 -8.995972,-17.511002c0,-2.608002 1.162964,-3.911003 3.48999,-3.911003c2.766968,0 7.559998,4.592995 14.380981,13.780006c5.575989,7.541992 8.364014,12.715988 8.364014,15.524994m16.578003,-9.959c0,-0.843994 -2.932007,-4.740005 -8.794983,-11.690002c-4.739014,-5.705002 -8.473999,-8.557999 -11.205017,-8.557999c-1.848999,0 -3.354004,0.691002 -4.518005,2.076004c-1.164978,1.384003 -1.747986,3.117996 -1.747986,5.205002c0,2.166 0.641968,4.513 1.925964,7.039993c-4.011963,-5.617004 -7.080994,-9.408005 -9.20697,-11.373001c-2.127014,-1.964996 -4.192017,-2.947998 -6.197998,-2.947998c-2.126038,0 -3.911011,0.913002 -5.354004,2.737c-1.445007,1.824997 -2.166992,4.122009 -2.166992,6.889999c0,7.703003 5.434998,14.522003 16.307007,20.459c4.773987,2.647995 8.623962,3.972 11.552979,3.972c2.487,0 3.731018,-1.203995 3.731018,-3.610001c0,-0.682999 -0.161011,-1.585999 -0.481018,-2.707993l3.067993,5.83699c1.204041,-0.281998 2.267029,-0.421997 3.190002,-0.421997c1.083008,0 2.487,0.139999 4.212036,0.421997l-10.651001,-17.630997c-3.69104,-6.177994 -5.536011,-10.250992 -5.536011,-12.216003c0,-1.884995 0.782959,-2.827995 2.349976,-2.827995c1.606018,0 4.177979,1.838005 7.713989,5.514992c3.535034,3.67601 7.129028,8.206009 10.786011,13.590012c0.23999,0.401001 0.460999,0.602005 0.661987,0.602005c0.241028,0 0.361023,-0.12001 0.361023,-0.361008" id="path62"/>
     </g>
     <g id="g64">
      <path fill="#f09fc0" fill-rule="nonzero" d="m665.576721,147.063004c0,-0.923996 -2.911987,-4.820999 -8.734009,-11.690002c-4.820984,-5.705994 -8.635986,-8.557999 -11.44696,-8.557999c-1.767029,0 -3.264038,0.712997 -4.489014,2.136002c-1.225037,1.423996 -1.837036,3.138 -1.837036,5.145004c0,1.563995 0.782043,3.75 2.347046,6.55899l-1.203003,-1.625c-3.692017,-4.733994 -6.400024,-7.903992 -8.124023,-9.506989c-1.885986,-1.806007 -3.669983,-2.708008 -5.356018,-2.708008c-1.764954,0 -3.248962,0.691002 -4.451965,2.076004c-1.204041,1.384003 -1.80603,3.078003 -1.80603,5.084c0,2.326004 0.903015,4.994995 2.708008,8.003998l10.952026,18.412994c1.362976,-0.281998 2.425964,-0.421997 3.188965,-0.421997c0.762024,0 2.126038,0.139999 4.092041,0.421997l-14.321045,-23.587997c-1.445007,-2.40799 -2.165955,-4.533997 -2.165955,-6.378998c0,-1.804993 0.760986,-2.708 2.28595,-2.708c4.051025,0 10.550049,7.560997 19.497009,22.685997l5.895996,9.988998c1.243042,-0.281998 2.287048,-0.421997 3.129028,-0.421997c1.002991,0 2.427002,0.139999 4.27301,0.421997l-9.628052,-15.705002c-4.573975,-7.46199 -6.859985,-12.256989 -6.859985,-14.381989c0,-1.725006 0.824036,-2.588005 2.471008,-2.588005c3.213989,0 8.436035,5.062996 15.666992,15.187996l1.868042,2.591003l1.083984,1.326004c0.200989,0.401001 0.401978,0.60199 0.602966,0.60199c0.241028,0 0.361023,-0.119995 0.361023,-0.360992" id="path66"/>
     </g>
     <g id="g68">
      <path fill="#f09fc0" fill-rule="nonzero" d="m687.750488,160.873001l-0.481018,-0.903l-7.882996,0l-13.419006,-22.925995c-1.645996,-2.768005 -2.46698,-4.973999 -2.46698,-6.619003c0,-1.804993 0.94397,-2.708 2.832031,-2.708c3.654968,0 9.820984,6.368004 18.497986,19.105003c0.281006,0.401001 0.52301,0.60199 0.723999,0.60199c0.23999,0 0.360962,-0.119995 0.360962,-0.360992c-0.040955,-0.119995 -0.240967,-0.442001 -0.602966,-0.964005l-2.588989,-3.556c-7.551025,-10.485992 -13.234009,-15.727997 -17.049011,-15.727997c-1.888,0 -3.463989,0.682999 -4.730042,2.04599c-1.264954,1.363007 -1.896973,3.068008 -1.896973,5.114014c0,2.406998 1.062012,5.416 3.189026,9.026001l10.109985,16.968994l-6.138,0l0.60199,0.903l6.017029,0l7.039978,11.673996c1.203003,-0.321991 2.346985,-0.481995 3.429993,-0.481995c1.122986,0 2.286987,0.160004 3.48999,0.481995l-6.919983,-11.673996l7.882996,0z" id="path70"/>
     </g>
     <g id="g72">
      <path fill="#f09fc0" fill-rule="nonzero" d="m689.014221,120.917503c-0.643005,-0.360001 -2.908997,-1.503998 -6.799988,-3.43c-18.252014,-9.065002 -27.379028,-17.209 -27.379028,-24.43c0,-3.010002 1.684998,-4.514 5.054993,-4.514c4.253052,0 8.484009,2.306999 12.696045,6.919998c4.212952,4.614006 9.427002,12.698006 15.645996,24.250999l0.781982,1.203003zm34.75,26.084999c0,-0.600998 -2.208984,-3.345001 -6.625977,-8.231995c-4.900024,-5.369003 -11.286011,-10.216003 -19.15802,-14.543007l-2.947998,-5.294998c-5.817993,-10.43 -11.89502,-18.193001 -18.233032,-23.286995c-6.539001,-5.256004 -12.215942,-7.883003 -17.028992,-7.883003c-1.644958,0 -3.018982,0.521996 -4.122009,1.565002c-1.102966,1.042992 -1.654968,2.325996 -1.654968,3.848999c0,8.064995 9.288025,16.407997 27.861023,25.032997c1.522949,0.763 3.809998,1.826004 6.858948,3.189003l0.903015,0.542l10.590027,18.834c-4.171997,-5.736008 -7.200989,-9.498001 -9.085999,-11.281998c-1.886047,-1.785004 -3.791016,-2.678001 -5.716003,-2.678001c-1.645996,0 -3.079041,0.702995 -4.30304,2.105995c-1.223999,1.404007 -1.834961,3.048996 -1.834961,4.934998c0,2.286011 1.424011,5.856003 4.271973,10.710007l9.267029,15.644989c0.921997,-0.159988 1.984985,-0.23999 3.188965,-0.23999c1.041992,0 2.487,0.139999 4.333008,0.421005l-11.85498,-19.255005c-3.369019,-5.455994 -5.054016,-9.027008 -5.054016,-10.710999c0,-1.806 0.822021,-2.708 2.46698,-2.708c4.332031,0 10.991028,7.680992 19.978027,23.045998l5.536011,9.446991c0.921997,-0.159988 2.045959,-0.23999 3.369995,-0.23999c1.083008,0 2.425964,0.139999 4.031006,0.421005c-4.973999,-7.903015 -11.713989,-19.496002 -20.218994,-34.781006c4.899963,2.524994 9.036987,5.257004 12.411987,8.203003c3.372986,2.944 7.148987,7.099991 11.326965,12.468002c0.561035,0.720993 0.923035,1.082993 1.084045,1.082993c0.23999,0 0.359985,-0.121002 0.359985,-0.362" id="path74"/>
     </g>
    </g>
   </g>
  </g>
 </g>
</svg>